<svg width="89" height="25" fill="none" xmlns="http://www.w3.org/2000/svg"><path d="M8.792 24.384c-1.6 0-3.019-.341-4.256-1.024a7.412 7.412 0 01-2.912-2.88C.92 19.243.568 17.813.568 16.192c0-1.643.341-3.104 1.024-4.384.704-1.28 1.664-2.272 2.88-2.976 1.237-.725 2.688-1.088 4.352-1.088 1.557 0 2.933.341 4.128 1.024a7.209 7.209 0 012.784 2.816c.683 1.173 1.024 2.485 1.024 3.936 0 .235-.01.48-.032.736 0 .256-.01.523-.032.8H4.632c.085 1.237.512 2.208 1.28 2.912.79.704 1.739 1.056 2.848 1.056.832 0 1.525-.181 2.08-.544a3.54 3.54 0 001.28-1.472h4.16a7.575 7.575 0 01-1.504 2.752c-.683.81-1.536 1.45-2.56 1.92-1.003.47-2.144.704-3.424.704zm.032-13.312c-1.003 0-1.888.288-2.656.864-.768.555-1.259 1.408-1.472 2.56H12.6c-.064-1.045-.448-1.877-1.152-2.496s-1.579-.928-2.624-.928z" fill="#fff"/><path d="M20.205 24V.96h4.096V24h-4.096zm14.233.384c-1.984 0-3.52-.619-4.608-1.856-1.066-1.237-1.6-3.05-1.6-5.44v-8.96h4.064v8.576c0 1.365.278 2.41.832 3.136.555.725 1.43 1.088 2.624 1.088 1.13 0 2.059-.405 2.784-1.216.747-.81 1.12-1.941 1.12-3.392V8.128h4.096V24h-3.616l-.32-2.688a5.55 5.55 0 01-2.144 2.24c-.917.555-1.994.832-3.232.832zM51.06 24L46.42 8.128h4.064l2.752 11.424 3.2-11.424h4.544l3.2 11.424 2.784-11.424h4.064L66.355 24h-4.256l-3.392-11.872L55.315 24h-4.256zm29.702.384c-1.6 0-3.019-.341-4.256-1.024a7.411 7.411 0 01-2.912-2.88c-.704-1.237-1.056-2.667-1.056-4.288 0-1.643.341-3.104 1.024-4.384.704-1.28 1.664-2.272 2.88-2.976 1.237-.725 2.688-1.088 4.352-1.088 1.557 0 2.933.341 4.128 1.024a7.21 7.21 0 012.784 2.816c.682 1.173 1.024 2.485 1.024 3.936 0 .235-.01.48-.032.736 0 .256-.01.523-.032.8H76.6c.085 1.237.512 2.208 1.28 2.912.79.704 1.738 1.056 2.848 1.056.832 0 1.525-.181 2.08-.544a3.54 3.54 0 001.28-1.472h4.16a7.575 7.575 0 01-1.504 2.752c-.683.81-1.536 1.45-2.56 1.92-1.003.47-2.144.704-3.424.704zm.032-13.312c-1.003 0-1.888.288-2.656.864-.768.555-1.259 1.408-1.472 2.56h7.904c-.064-1.045-.448-1.877-1.152-2.496s-1.579-.928-2.624-.928z" fill="#FF7352"/></svg>